<svg
  xmlns="http://www.w3.org/2000/svg"
  xmlns:xlink="http://www.w3.org/1999/xlink"
  width="50"
  zoomAndPan="magnify"
  viewBox="0 0 192 191.999996"
  height="50"
  preserveAspectRatio="xMidYMid meet"
  version="1.0"
><defs><g /></defs><path
    fill="#6fcdeb"
    d="M 47.25 0 L 144.75 0 C 157.28125 0 169.300781 4.976562 178.160156 13.839844 C 187.023438 22.699219 192 34.71875 192 47.25 L 192 144.75 C 192 170.84375 170.84375 192 144.75 192 L 47.25 192 C 21.15625 192 0 170.84375 0 144.75 L 0 47.25 C 0 21.15625 21.15625 0 47.25 0 "
    fill-opacity="1"
    fill-rule="nonzero"
  /><g fill="#ffffff" fill-opacity="1"><g
      transform="translate(57.140624, 198.215731)"
    ><g><path
          d="M 59.828125 -136.515625 C 55.171875 -136.515625 51.742188 -135.625 49.546875 -133.84375 C 47.359375 -132.0625 46.019531 -129.898438 45.53125 -127.359375 C 45.050781 -124.828125 44.8125 -121.570312 44.8125 -117.59375 L 44.8125 -108.34375 L 70.109375 -108.34375 L 70.109375 -91.484375 L 44.8125 -91.484375 L 44.8125 0 L 23.640625 0 L 23.4375 -91.484375 L 9.046875 -91.484375 L 9.046875 -108.34375 L 23.4375 -108.34375 L 23.4375 -121.5 C 23.4375 -141.65625 33.71875 -151.734375 54.28125 -151.734375 C 57.289062 -151.734375 60.335938 -151.5625 63.421875 -151.21875 C 66.503906 -150.875 68.734375 -150.492188 70.109375 -150.078125 L 70.109375 -135.484375 C 67.085938 -136.171875 63.660156 -136.515625 59.828125 -136.515625 Z M 59.828125 -136.515625 "
        /></g></g></g></svg>
