<svg
  xmlns="http://www.w3.org/2000/svg"
  xmlns:xlink="http://www.w3.org/1999/xlink"
  width="50"
  zoomAndPan="magnify"
  viewBox="0 0 192 191.999996"
  height="50"
  preserveAspectRatio="xMidYMid meet"
  version="1.0"
><defs><g /><clipPath id="aa2e2aadf7"><path
        d="M 37.5 0 L 154.5 0 C 175.210938 0 192 16.789062 192 37.5 L 192 154.5 C 192 175.210938 175.210938 192 154.5 192 L 37.5 192 C 16.789062 192 0 175.210938 0 154.5 L 0 37.5 C 0 16.789062 16.789062 0 37.5 0 "
        clip-rule="nonzero"
      /></clipPath></defs><g clip-path="url(#aa2e2aadf7)"><path
      stroke-linecap="butt"
      transform="matrix(0.75, 0, 0, 0.75, 0.000002, 0.0000146484)"
      fill="none"
      stroke-linejoin="miter"
      d="M 49.999997 -0.0000195312 L 205.999997 -0.0000195312 C 233.61458 -0.0000195312 255.999997 22.385397 255.999997 49.99998 L 255.999997 205.99998 C 255.999997 233.614563 233.61458 255.99998 205.999997 255.99998 L 49.999997 255.99998 C 22.385414 255.99998 -0.00000266667 233.614563 -0.00000266667 205.99998 L -0.00000266667 49.99998 C -0.00000266667 22.385397 22.385414 -0.0000195312 49.999997 -0.0000195312 "
      stroke="#6fcdeb"
      stroke-width="54"
      stroke-opacity="1"
      stroke-miterlimit="4"
    /></g><g fill="#6fcdeb" fill-opacity="1"><g
      transform="translate(29.332031, 159.110893)"
    ><g><path
          d="M 19.4375 -92.875 C 16.039062 -92.875 13.117188 -94.09375 10.671875 -96.53125 C 8.234375 -98.976562 7.015625 -101.898438 7.015625 -105.296875 C 7.015625 -108.691406 8.234375 -111.609375 10.671875 -114.046875 C 13.117188 -116.492188 16.039062 -117.71875 19.4375 -117.71875 C 22.832031 -117.71875 25.75 -116.492188 28.1875 -114.046875 C 30.632812 -111.609375 31.859375 -108.691406 31.859375 -105.296875 C 31.859375 -101.898438 30.632812 -98.976562 28.1875 -96.53125 C 25.75 -94.09375 22.832031 -92.875 19.4375 -92.875 Z M 30.421875 -83 L 30.421875 0 L 8.609375 0 L 8.609375 -83 Z M 30.421875 -83 "
        /></g></g></g><g fill="#6fcdeb" fill-opacity="1"><g
      transform="translate(68.196692, 159.110893)"
    ><g><path
          d="M 8.609375 0 L 8.609375 -83 L 30.421875 -83 L 30.421875 -76.46875 C 33.609375 -79.113281 37.140625 -81.128906 41.015625 -82.515625 C 44.890625 -83.898438 49.113281 -84.59375 53.6875 -84.59375 C 63.238281 -84.59375 71.09375 -81.507812 77.25 -75.34375 C 83.414062 -69.1875 86.5 -61.273438 86.5 -51.609375 L 86.5 0 L 64.671875 0 L 64.671875 -48.421875 C 64.671875 -53.628906 63.101562 -57.828125 59.96875 -61.015625 C 56.84375 -64.203125 52.675781 -65.796875 47.46875 -65.796875 C 43.851562 -65.796875 40.585938 -65.078125 37.671875 -63.640625 C 34.753906 -62.203125 32.335938 -60.15625 30.421875 -57.5 L 30.421875 0 Z M 8.609375 0 "
        /></g></g></g></svg>
