<svg
  xmlns="http://www.w3.org/2000/svg"
  xmlns:xlink="http://www.w3.org/1999/xlink"
  width="50"
  zoomAndPan="magnify"
  viewBox="0 0 192 191.999996"
  height="50"
  preserveAspectRatio="xMidYMid meet"
  version="1.0"
><defs><clipPath id="72ce2acbc1"><path
        d="M 47.25 0 L 144.75 0 C 157.28125 0 169.300781 4.976562 178.160156 13.839844 C 187.023438 22.699219 192 34.71875 192 47.25 L 192 144.75 C 192 170.84375 170.84375 192 144.75 192 L 47.25 192 C 21.15625 192 0 170.84375 0 144.75 L 0 47.25 C 0 21.15625 21.15625 0 47.25 0 "
        clip-rule="nonzero"
      /></clipPath><clipPath id="c6db5939dc"><path
        d="M 53.773438 53.773438 L 138.523438 53.773438 L 138.523438 138.523438 L 53.773438 138.523438 Z M 53.773438 53.773438 "
        clip-rule="nonzero"
      /></clipPath><clipPath id="586c4347f9"><path
        d="M 96.148438 53.773438 C 72.746094 53.773438 53.773438 72.746094 53.773438 96.148438 C 53.773438 119.554688 72.746094 138.523438 96.148438 138.523438 C 119.554688 138.523438 138.523438 119.554688 138.523438 96.148438 C 138.523438 72.746094 119.554688 53.773438 96.148438 53.773438 "
        clip-rule="nonzero"
      /></clipPath><clipPath id="72e86309f8"><path
        d="M 129.074219 31.273438 L 159.824219 31.273438 L 159.824219 62.023438 L 129.074219 62.023438 Z M 129.074219 31.273438 "
        clip-rule="nonzero"
      /></clipPath></defs><g clip-path="url(#72ce2acbc1)"><path
      stroke-linecap="butt"
      transform="matrix(0.75, 0, 0, 0.75, 0.000002, 0.000000000000021316)"
      fill="none"
      stroke-linejoin="miter"
      d="M 62.999997 -0.000000000000028422 L 192.999997 -0.000000000000028422 C 209.70833 -0.000000000000028422 225.734372 6.635417 237.546872 18.453125 C 249.36458 30.265625 255.999997 46.291667 255.999997 63 L 255.999997 193 C 255.999997 227.791666 227.791664 256 192.999997 256 L 62.999997 256 C 28.208331 256 -0.00000266667 227.791666 -0.00000266667 193 L -0.00000266667 63 C -0.00000266667 28.208333 28.208331 -0.000000000000028422 62.999997 -0.000000000000028422 "
      stroke="#6fcdeb"
      stroke-width="54"
      stroke-opacity="1"
      stroke-miterlimit="4"
    /></g><g clip-path="url(#c6db5939dc)"><g clip-path="url(#586c4347f9)"><path
        stroke-linecap="butt"
        transform="matrix(0.752706, 0, 0, 0.752706, 53.774994, 53.774992)"
        fill="none"
        stroke-linejoin="miter"
        d="M 56.294811 -0.002065 C 25.203864 -0.002065 -0.00206766 25.203866 -0.00206766 56.294814 C -0.00206766 87.390951 25.203864 112.591693 56.294811 112.591693 C 87.390949 112.591693 112.59169 87.390951 112.59169 56.294814 C 112.59169 25.203866 87.390949 -0.002065 56.294811 -0.002065 "
        stroke="#6fcdeb"
        stroke-width="48"
        stroke-opacity="1"
        stroke-miterlimit="4"
      /></g></g><g clip-path="url(#72e86309f8)"><path
      fill="#6fcdeb"
      d="M 144.449219 31.273438 C 135.957031 31.273438 129.074219 38.160156 129.074219 46.648438 C 129.074219 55.140625 135.957031 62.023438 144.449219 62.023438 C 152.941406 62.023438 159.824219 55.140625 159.824219 46.648438 C 159.824219 38.160156 152.941406 31.273438 144.449219 31.273438 "
      fill-opacity="1"
      fill-rule="nonzero"
    /></g></svg>
