<svg
  xmlns="http://www.w3.org/2000/svg"
  xmlns:xlink="http://www.w3.org/1999/xlink"
  width="50"
  zoomAndPan="magnify"
  viewBox="0 0 192 191.999996"
  height="50"
  preserveAspectRatio="xMidYMid meet"
  version="1.0"
><defs><clipPath id="beea560db3"><path
        d="M 47.25 0 L 144.75 0 C 157.28125 0 169.300781 4.976562 178.160156 13.839844 C 187.023438 22.699219 192 34.71875 192 47.25 L 192 144.75 C 192 170.84375 170.84375 192 144.75 192 L 47.25 192 C 21.15625 192 0 170.84375 0 144.75 L 0 47.25 C 0 21.15625 21.15625 0 47.25 0 "
        clip-rule="nonzero"
      /></clipPath><clipPath id="cf333e3d39"><path
        d="M 33.46875 46 L 158.71875 46 L 158.71875 148.179688 L 33.46875 148.179688 Z M 33.46875 46 "
        clip-rule="nonzero"
      /></clipPath></defs><g clip-path="url(#beea560db3)"><path
      stroke-linecap="butt"
      transform="matrix(0.75, 0, 0, 0.75, 0.000002, 0)"
      fill="none"
      stroke-linejoin="miter"
      d="M 62.999997 0 L 192.999997 0 C 209.70833 0 225.734372 6.635417 237.546872 18.453125 C 249.36458 30.265625 255.999997 46.291667 255.999997 63 L 255.999997 193 C 255.999997 227.791666 227.791664 256 192.999997 256 L 62.999997 256 C 28.208331 256 -0.00000266667 227.791666 -0.00000266667 193 L -0.00000266667 63 C -0.00000266667 28.208333 28.208331 0 62.999997 0 "
      stroke="#6fcdeb"
      stroke-width="54"
      stroke-opacity="1"
      stroke-miterlimit="4"
    /></g><g clip-path="url(#cf333e3d39)"><path
      fill="#6fcdeb"
      d="M 145.785156 71.945312 C 145.859375 73.046875 145.859375 74.148438 145.859375 75.257812 C 145.859375 109.121094 120.070312 148.171875 72.910156 148.171875 L 72.910156 148.152344 C 58.980469 148.175781 45.335938 144.1875 33.609375 136.664062 C 35.636719 136.90625 37.671875 137.03125 39.714844 137.035156 C 51.257812 137.042969 62.472656 133.171875 71.554688 126.042969 C 60.582031 125.835938 50.964844 118.683594 47.601562 108.246094 C 51.445312 108.988281 55.40625 108.835938 59.175781 107.804688 C 47.214844 105.386719 38.609375 94.882812 38.609375 82.683594 C 38.609375 82.570312 38.609375 82.464844 38.609375 82.359375 C 42.171875 84.34375 46.164062 85.445312 50.246094 85.566406 C 38.980469 78.042969 35.511719 63.066406 42.3125 51.351562 C 55.328125 67.363281 74.535156 77.09375 95.152344 78.125 C 93.085938 69.222656 95.910156 59.898438 102.570312 53.640625 C 112.898438 43.9375 129.140625 44.433594 138.847656 54.75 C 144.585938 53.621094 150.089844 51.515625 155.128906 48.53125 C 153.210938 54.464844 149.207031 59.503906 143.859375 62.703125 C 148.9375 62.105469 153.90625 60.746094 158.582031 58.667969 C 155.136719 63.824219 150.800781 68.316406 145.785156 71.945312 Z M 145.785156 71.945312 "
      fill-opacity="1"
      fill-rule="nonzero"
    /></g></svg>
